<svg xmlns="http://www.w3.org/2000/svg" viewBox="0 0 123.62 70"><defs><style>.cls-1{fill:#16ffff;fill-rule:evenodd;}</style></defs><g id="Layer_2" data-name="Layer 2"><g id="Layer_1-2" data-name="Layer 1"><path class="cls-1" d="M44.6,30.64c-1.91-2.87-.62-7.16.57-10.07a46.93,46.93,0,0,1,4.11-7.77l.5-.75.89-.05c1.69-.11,3.38-.27,5.07-.44,1.26-.13,2.51-.26,3.78-.32a34.79,34.79,0,0,1,9,.87c2.35.49,4.68,1.1,7,1.74,2.15.59,4.29,1.23,6.43,1.87a7.31,7.31,0,0,0,.42,1.3L96.15,48.57l.13.31-1.71,1.2-1.4,1-1.06-1.35c-1.5-1.93-3.15-3.8-4.79-5.62-4.51-5-13.48-15.3-18.95-17.6a8.75,8.75,0,0,0-6.77-.26,24.24,24.24,0,0,0-5.67,3.45C52.52,32.2,47.66,35.22,44.6,30.64Z"/><path class="cls-1" d="M94.45,55.66a4.52,4.52,0,0,1-1.33,2.46,5,5,0,0,1-2.91,1.3,9.21,9.21,0,0,1-4-.55L76.38,48.1a.89.89,0,1,0-1.31,1.21L85.24,60.44A5.45,5.45,0,0,1,85,63.1a3.54,3.54,0,0,1-1.63,1.84,5.09,5.09,0,0,1-2.42.56,6.75,6.75,0,0,1-1.65-.19L68.15,53.42a.89.89,0,1,0-1.3,1.23L77.21,65.71c-.87,4.2-4.4,5.25-8,3.44L69,69,67.33,67.4a.08.08,0,0,0,0,0l-7.7-7.79a.9.9,0,0,0-1.27,0,.89.89,0,0,0,0,1.26L65,67.59,64,67.88a27.1,27.1,0,0,1-3.77.77c-1.87.22-4,.2-5.62-1-1.9-1.39-3.78-3-5.61-4.48q-4.48-3.69-9-7.4-6-5-11.91-10l9-33.74c3.1.11,6.21.15,9.31.07l1.13,0a46.79,46.79,0,0,0-4.06,7.74c-1.45,3.55-2.71,8.28-.4,11.75,3,4.43,7.41,3.6,11.37,1.21.87-.53,1.7-1.11,2.52-1.71a22.81,22.81,0,0,1,5.22-3.2,7,7,0,0,1,5.46.23,20.45,20.45,0,0,1,4.6,3.08C76.69,34.94,93.65,53.29,94.45,55.66Z"/><path class="cls-1" d="M26.22,45.88,35.58,11A5.36,5.36,0,0,0,35,6.89h0a5.4,5.4,0,0,0-3.26-2.51L16.13.18a5.38,5.38,0,0,0-4.08.55h0A5.33,5.33,0,0,0,9.54,4L.18,38.9A5.38,5.38,0,0,0,.73,43h0A5.33,5.33,0,0,0,4,45.49l15.64,4.19a5.33,5.33,0,0,0,4.08-.54h0a5.33,5.33,0,0,0,2.51-3.26Zm-13.47-14a5,5,0,1,1-3.53,1.46A5,5,0,0,1,12.75,31.87Z"/><path class="cls-1" d="M123.17,38.6,108.67,5.5a5.38,5.38,0,0,0-7.09-2.78L86.75,9.22A5.38,5.38,0,0,0,84,16.3l0,.07L97.79,47.85l.69,1.56a5.38,5.38,0,0,0,7.08,2.77l14.83-6.49a5.38,5.38,0,0,0,2.78-7.09Zm-13.48-5.07a5,5,0,1,1-3.27,2A5,5,0,0,1,109.69,33.53Z"/></g></g></svg>