<svg xmlns="http://www.w3.org/2000/svg" viewBox="0 0 90.27 90"><defs><style>.cls-1{fill:#16ffff;}</style></defs><g id="Layer_2" data-name="Layer 2"><g id="Layer_1-2" data-name="Layer 1"><path class="cls-1" d="M45.78,0a1.47,1.47,0,0,0-1.47,1.46V12.07a1.47,1.47,0,1,0,2.93,0V1.46A1.47,1.47,0,0,0,45.78,0Z"/><path class="cls-1" d="M15.74,12.77a1.46,1.46,0,0,0-2.07,2.07l7.51,7.5a1.45,1.45,0,0,0,2.06,0,1.45,1.45,0,0,0,0-2.07Z"/><path class="cls-1" d="M13.54,44.5A1.47,1.47,0,0,0,12.07,43H1.46a1.47,1.47,0,0,0,0,2.93H12.07A1.47,1.47,0,0,0,13.54,44.5Z"/><path class="cls-1" d="M20.27,67l-7.5,7.5a1.47,1.47,0,0,0,0,2.07,1.42,1.42,0,0,0,1,.43,1.46,1.46,0,0,0,1-.43l7.5-7.5A1.46,1.46,0,0,0,20.27,67Z"/><path class="cls-1" d="M69.1,67.93A1.46,1.46,0,0,0,67,70l7.5,7.51a1.5,1.5,0,0,0,1,.43,1.47,1.47,0,0,0,1-2.5Z"/><path class="cls-1" d="M88.81,44.31H78.2a1.47,1.47,0,0,0,0,2.93H88.81a1.47,1.47,0,0,0,0-2.93Z"/><path class="cls-1" d="M69,23.67a1.42,1.42,0,0,0,1-.43l7.51-7.5a1.46,1.46,0,0,0-2.07-2.07l-7.51,7.51a1.46,1.46,0,0,0,1,2.49Z"/><path class="cls-1" d="M53.73,76.46H37.55a1.89,1.89,0,0,0-1.88,1.89v4.1a1.88,1.88,0,0,0,1.88,1.88h1.23v2A3.62,3.62,0,0,0,42.41,90h5.64a3.63,3.63,0,0,0,3.63-3.63v-2h2a1.88,1.88,0,0,0,1.88-1.88v-4.1A1.89,1.89,0,0,0,53.73,76.46Z"/><path class="cls-1" d="M45.78,21A22.33,22.33,0,0,0,23.19,43a21.72,21.72,0,0,0,5.74,14.72,21.38,21.38,0,0,1,4.26,7l2.46,6.66a2,2,0,0,0,1.84,1.27H53.87a1.94,1.94,0,0,0,1.84-1.29L58,65.29a21.58,21.58,0,0,1,4.51-7.36A21.76,21.76,0,0,0,68.37,43,22.34,22.34,0,0,0,45.78,21Zm0,9.59a14.49,14.49,0,0,0-6.27,1.79c-4.14,2.3-6.44,6.41-6.82,12.19a1.09,1.09,0,0,1-1.09,1h-.08a1.09,1.09,0,0,1-1-1.16c.55-8.24,4.67-12.17,8-14a16.43,16.43,0,0,1,7.23-2,1.09,1.09,0,0,1,0,2.18Z"/></g></g></svg>