<svg xmlns="http://www.w3.org/2000/svg" viewBox="0 0 39.28 39.28"><defs><style>.cls-1{fill:#231051;}.cls-2{fill:#fff;fill-rule:evenodd;}</style></defs><g id="Layer_2" data-name="Layer 2"><g id="Layer_1-2" data-name="Layer 1"><rect class="cls-1" width="39.28" height="39.28" rx="19.64"/><path class="cls-2" d="M13.88,7.15H25.42a6.79,6.79,0,0,1,6.76,6.76V25.39a6.79,6.79,0,0,1-6.76,6.76H13.88a6.79,6.79,0,0,1-6.76-6.76V13.91a6.79,6.79,0,0,1,6.76-6.76Zm12.5,4.37h0A1.45,1.45,0,0,1,27.82,13h0a1.46,1.46,0,0,1-1.44,1.44h0A1.41,1.41,0,0,1,25,13h0a1.4,1.4,0,0,1,1.43-1.43Zm-6.76,1.31h.06a6.89,6.89,0,0,1,6.82,6.82h0a6.85,6.85,0,0,1-6.82,6.82h-.06a6.8,6.8,0,0,1-6.76-6.82h0a6.84,6.84,0,0,1,6.76-6.82Zm0,2.34h.06a4.52,4.52,0,0,1,4.49,4.48h0a4.54,4.54,0,0,1-4.49,4.55h-.06a4.53,4.53,0,0,1-4.48-4.55h0a4.51,4.51,0,0,1,4.48-4.48ZM13.94,9.3H25.36A4.68,4.68,0,0,1,30,14V25.33A4.67,4.67,0,0,1,25.36,30H13.94a4.68,4.68,0,0,1-4.67-4.67V14A4.68,4.68,0,0,1,13.94,9.3Z"/></g></g></svg>