<svg xmlns="http://www.w3.org/2000/svg" viewBox="0 0 39.28 39.28"><defs><style>.cls-1{fill:#231051;}.cls-2{fill:#fff;fill-rule:evenodd;}</style></defs><g id="Layer_2" data-name="Layer 2"><g id="Layer_1-2" data-name="Layer 1"><rect class="cls-1" width="39.28" height="39.28" rx="19.64"/><path class="cls-2" d="M8,19.14c5.39-2.26,11.93-5.49,17.58-7.66,5.23-1.92,5.14-1.4,4.36,3.83-.61,4.18-1.31,8.36-2,12.54-.27,2-1.31,3-3.49,1.83l-6.79-4.79c-1-.79-.7-1.4.09-2.18L24,16.79c1.65-1.66.87-2.27-1.05-1l-8.62,5.83a4.14,4.14,0,0,1-3.92.44l-3-1.05C5.54,20.36,7,19.57,8,19.14Z"/></g></g></svg>