<svg xmlns="http://www.w3.org/2000/svg" viewBox="0 0 39.28 39.28"><defs><style>.cls-1,.cls-3{fill:#231051;}.cls-2{fill:#fff;}.cls-2,.cls-3{fill-rule:evenodd;}</style></defs><g id="Layer_2" data-name="Layer 2"><g id="Layer_1-2" data-name="Layer 1"><rect class="cls-1" width="39.28" height="39.28" rx="19.64"/><path class="cls-2" d="M12.45,11.32c2.35-.19,5.12-.28,7.23-.28h0c2.12,0,4.84.09,7.24.28,2.77.24,4.18.71,4.56,3.48a34.8,34.8,0,0,1,.28,4.79h0a34.36,34.36,0,0,1-.28,4.8c-.38,2.82-1.79,3.24-4.56,3.47-2.4.24-5.12.29-7.24.29h0c-2.11,0-4.88,0-7.23-.29-2.78-.23-4.23-.65-4.61-3.47a45.43,45.43,0,0,1-.24-4.8h0a46.12,46.12,0,0,1,.24-4.79c.38-2.77,1.83-3.24,4.61-3.48Z"/><polygon class="cls-3" points="17.24 15.97 23.54 19.59 17.24 23.26 17.24 15.97"/></g></g></svg>