<svg xmlns="http://www.w3.org/2000/svg" viewBox="0 0 39.28 39.28"><defs><style>.cls-1{fill:#231051;}.cls-2{fill:#fff;fill-rule:evenodd;}</style></defs><g id="Layer_2" data-name="Layer 2"><g id="Layer_1-2" data-name="Layer 1"><rect class="cls-1" width="39.28" height="39.28" rx="19.64"/><path class="cls-2" d="M19.84,16.16a5.11,5.11,0,0,1,8.77-4.44,13.24,13.24,0,0,0,3-1.36,5.62,5.62,0,0,1-2.26,2.84,9.47,9.47,0,0,0,2.77-.78,5.32,5.32,0,0,1-2.38,2.39c.84,11.67-11.73,18.76-21.92,13,0,0,5,.25,7.16-2.19,0,0-3.1.25-4.64-3.49A3.08,3.08,0,0,0,12.69,22a5.06,5.06,0,0,1-3.94-4.9,3.19,3.19,0,0,0,2.45.58,5,5,0,0,1-1.74-6.71s4.26,5.42,10.38,5.22Z"/></g></g></svg>