<svg xmlns="http://www.w3.org/2000/svg" viewBox="0 0 67.7 90"><defs><style>.cls-1{fill:#16ffff;}</style></defs><g id="Layer_2" data-name="Layer 2"><g id="Layer_1-2" data-name="Layer 1"><path class="cls-1" d="M33.73,81.35l24.17-31a30,30,0,0,0,7.39-19.73C65.29,13.71,51.21,0,33.85,0S2.41,13.71,2.41,30.62A30,30,0,0,0,9.64,50.16Zm.12-70.13A17.45,17.45,0,0,1,51.56,28.4,17.45,17.45,0,0,1,33.85,45.58,17.45,17.45,0,0,1,16.14,28.4,17.45,17.45,0,0,1,33.85,11.22Z"/><path class="cls-1" d="M56.53,75.39a108.81,108.81,0,0,0-13.34-1.5l-3.73,4.52A118.88,118.88,0,0,1,54,79.7c4.73.76,7.06,1.58,8.16,2.12A31,31,0,0,1,54,83.94a133.47,133.47,0,0,1-20.13,1.38h-.12a131.89,131.89,0,0,1-20-1.38,31,31,0,0,1-8.16-2.12c1.1-.54,3.43-1.36,8.16-2.12A119.64,119.64,0,0,1,27.9,78.42l-3.81-4.5a107.67,107.67,0,0,0-12.93,1.47C3.44,76.83,0,78.81,0,81.82s3.44,5,11.16,6.43A130.65,130.65,0,0,0,33.85,90a130.53,130.53,0,0,0,22.68-1.75c7.73-1.44,11.17-3.42,11.17-6.43S64.26,76.83,56.53,75.39Z"/></g></g></svg>