<svg xmlns="http://www.w3.org/2000/svg" xmlns:xlink="http://www.w3.org/1999/xlink" viewBox="0 0 973.23 1016.88"><defs><style>.cls-1{opacity:0.75;}.cls-10,.cls-11,.cls-12,.cls-13,.cls-14,.cls-15,.cls-16,.cls-17,.cls-18,.cls-19,.cls-2,.cls-20,.cls-21,.cls-22,.cls-23,.cls-24,.cls-25,.cls-26,.cls-27,.cls-28,.cls-29,.cls-3,.cls-30,.cls-31,.cls-32,.cls-33,.cls-34,.cls-35,.cls-36,.cls-37,.cls-38,.cls-39,.cls-4,.cls-40,.cls-41,.cls-42,.cls-43,.cls-44,.cls-45,.cls-46,.cls-47,.cls-48,.cls-49,.cls-5,.cls-50,.cls-51,.cls-52,.cls-53,.cls-54,.cls-55,.cls-56,.cls-57,.cls-6,.cls-7,.cls-8,.cls-9{opacity:0.3;}.cls-2{fill:url(#radial-gradient);}.cls-3{fill:url(#radial-gradient-2);}.cls-4{fill:url(#radial-gradient-3);}.cls-5{fill:url(#radial-gradient-4);}.cls-6{fill:url(#radial-gradient-5);}.cls-7{fill:url(#radial-gradient-6);}.cls-8{fill:url(#radial-gradient-7);}.cls-9{fill:url(#radial-gradient-8);}.cls-10{fill:url(#radial-gradient-9);}.cls-11{fill:url(#radial-gradient-10);}.cls-12{fill:url(#radial-gradient-11);}.cls-13{fill:url(#radial-gradient-12);}.cls-14{fill:url(#radial-gradient-13);}.cls-15{fill:url(#radial-gradient-14);}.cls-16{fill:url(#radial-gradient-15);}.cls-17{fill:url(#radial-gradient-16);}.cls-18{fill:url(#radial-gradient-17);}.cls-19{fill:url(#radial-gradient-18);}.cls-20{fill:url(#radial-gradient-19);}.cls-21{fill:url(#radial-gradient-20);}.cls-22{fill:url(#radial-gradient-21);}.cls-23{fill:url(#radial-gradient-22);}.cls-24{fill:url(#radial-gradient-23);}.cls-25{fill:url(#radial-gradient-24);}.cls-26{fill:url(#radial-gradient-25);}.cls-27{fill:url(#radial-gradient-26);}.cls-28{fill:url(#radial-gradient-27);}.cls-29{fill:url(#radial-gradient-28);}.cls-30{fill:url(#radial-gradient-29);}.cls-31{fill:url(#radial-gradient-30);}.cls-32{fill:url(#radial-gradient-31);}.cls-33{fill:url(#radial-gradient-32);}.cls-34{fill:url(#radial-gradient-33);}.cls-35{fill:url(#radial-gradient-34);}.cls-36{fill:url(#radial-gradient-35);}.cls-37{fill:url(#radial-gradient-36);}.cls-38{fill:url(#radial-gradient-37);}.cls-39{fill:url(#radial-gradient-38);}.cls-40{fill:url(#radial-gradient-39);}.cls-41{fill:url(#radial-gradient-40);}.cls-42{fill:url(#radial-gradient-41);}.cls-43{fill:url(#radial-gradient-42);}.cls-44{fill:url(#radial-gradient-43);}.cls-45{fill:url(#radial-gradient-44);}.cls-46{fill:url(#radial-gradient-45);}.cls-47{fill:url(#radial-gradient-46);}.cls-48{fill:url(#radial-gradient-47);}.cls-49{fill:url(#radial-gradient-48);}.cls-50{fill:url(#radial-gradient-49);}.cls-51{fill:url(#radial-gradient-50);}.cls-52{fill:url(#radial-gradient-51);}.cls-53{fill:url(#radial-gradient-52);}.cls-54{fill:url(#radial-gradient-53);}.cls-55{fill:url(#radial-gradient-54);}.cls-56{fill:url(#radial-gradient-55);}.cls-57{fill:url(#radial-gradient-56);}</style><radialGradient id="radial-gradient" cx="1232.19" cy="320.4" r="46.34" gradientTransform="matrix(-0.93, -0.51, -0.49, 0.87, 1759.33, 676.17)" gradientUnits="userSpaceOnUse"><stop offset="0" stop-color="#263595"/><stop offset="0.14" stop-color="#263595" stop-opacity="0.96"/><stop offset="0.31" stop-color="#263595" stop-opacity="0.86"/><stop offset="0.5" stop-color="#263595" stop-opacity="0.69"/><stop offset="0.7" stop-color="#263595" stop-opacity="0.46"/><stop offset="0.9" stop-color="#263595" stop-opacity="0.16"/><stop offset="1" stop-color="#263595" stop-opacity="0"/></radialGradient><radialGradient id="radial-gradient-2" cx="1620.76" cy="242.72" r="40.97" xlink:href="#radial-gradient"/><radialGradient id="radial-gradient-3" cx="1216.23" cy="259.56" r="30.03" xlink:href="#radial-gradient"/><radialGradient id="radial-gradient-4" cx="1302.7" cy="210.07" r="38.68" xlink:href="#radial-gradient"/><radialGradient id="radial-gradient-5" cx="1226.94" cy="244.75" r="34.11" xlink:href="#radial-gradient"/><radialGradient id="radial-gradient-6" cx="1220.55" cy="24.7" r="25.59" xlink:href="#radial-gradient"/><radialGradient id="radial-gradient-7" cx="1057.47" cy="163.77" r="47.78" xlink:href="#radial-gradient"/><radialGradient id="radial-gradient-8" cx="1060.52" cy="-10.07" r="105.15" xlink:href="#radial-gradient"/><radialGradient id="radial-gradient-9" cx="1033.89" cy="-36.81" r="22.15" xlink:href="#radial-gradient"/><radialGradient id="radial-gradient-10" cx="1000.34" cy="145.16" r="37.1" xlink:href="#radial-gradient"/><radialGradient id="radial-gradient-11" cx="965.76" cy="119.02" r="48.14" xlink:href="#radial-gradient"/><radialGradient id="radial-gradient-12" cx="909" cy="-3.41" r="43.16" xlink:href="#radial-gradient"/><radialGradient id="radial-gradient-13" cx="800.16" cy="155.19" r="19.63" xlink:href="#radial-gradient"/><radialGradient id="radial-gradient-14" cx="835.06" cy="254.45" r="27.26" xlink:href="#radial-gradient"/><radialGradient id="radial-gradient-15" cx="810.71" cy="275.9" r="24.11" xlink:href="#radial-gradient"/><radialGradient id="radial-gradient-16" cx="722.36" cy="381.68" r="71.3" xlink:href="#radial-gradient"/><radialGradient id="radial-gradient-17" cx="815.31" cy="394.94" r="40.29" xlink:href="#radial-gradient"/><radialGradient id="radial-gradient-18" cx="803.1" cy="431.72" r="46.39" xlink:href="#radial-gradient"/><radialGradient id="radial-gradient-19" cx="636.41" cy="547.13" r="17.14" xlink:href="#radial-gradient"/><radialGradient id="radial-gradient-20" cx="675.45" cy="596.55" r="20.97" xlink:href="#radial-gradient"/><radialGradient id="radial-gradient-21" cx="727.03" cy="774.62" r="34.45" xlink:href="#radial-gradient"/><radialGradient id="radial-gradient-22" cx="817.84" cy="696.09" r="15.94" xlink:href="#radial-gradient"/><radialGradient id="radial-gradient-23" cx="868.25" cy="673.45" r="19.33" xlink:href="#radial-gradient"/><radialGradient id="radial-gradient-24" cx="927.04" cy="847.83" r="47.74" xlink:href="#radial-gradient"/><radialGradient id="radial-gradient-25" cx="1018.06" cy="767.02" r="31.88" xlink:href="#radial-gradient"/><radialGradient id="radial-gradient-26" cx="1094.54" cy="612.23" r="26.38" xlink:href="#radial-gradient"/><radialGradient id="radial-gradient-27" cx="1243.2" cy="780.92" r="77.17" xlink:href="#radial-gradient"/><radialGradient id="radial-gradient-28" cx="1325.81" cy="734.94" r="20.7" xlink:href="#radial-gradient"/><radialGradient id="radial-gradient-29" cx="1370.55" cy="627.56" r="38.52" xlink:href="#radial-gradient"/><radialGradient id="radial-gradient-30" cx="1344.17" cy="571.91" r="55.23" xlink:href="#radial-gradient"/><radialGradient id="radial-gradient-31" cx="1346.19" cy="497.54" r="82.13" xlink:href="#radial-gradient"/><radialGradient id="radial-gradient-32" cx="1350.05" cy="464.73" r="27.53" xlink:href="#radial-gradient"/><radialGradient id="radial-gradient-33" cx="1319.19" cy="362.41" r="33.75" xlink:href="#radial-gradient"/><radialGradient id="radial-gradient-34" cx="1312.38" cy="329.01" r="101.31" xlink:href="#radial-gradient"/><radialGradient id="radial-gradient-35" cx="7387.85" cy="7739.34" r="35.54" gradientTransform="matrix(0.25, -1.04, -0.97, -0.24, 6215.48, 9573.34)" gradientUnits="userSpaceOnUse"><stop offset="0" stop-color="#263595"/><stop offset="0.19" stop-color="#263595" stop-opacity="0.8"/><stop offset="0.75" stop-color="#263595" stop-opacity="0.23"/><stop offset="1" stop-color="#263595" stop-opacity="0"/></radialGradient><radialGradient id="radial-gradient-36" cx="849.63" cy="2310.09" r="29.59" gradientTransform="matrix(-0.93, -0.51, -0.49, 0.87, 2266.56, -1297.68)" xlink:href="#radial-gradient-35"/><radialGradient id="radial-gradient-37" cx="7421.66" cy="7586.74" r="22.2" xlink:href="#radial-gradient-35"/><radialGradient id="radial-gradient-38" cx="7280.18" cy="7707.4" r="41.45" xlink:href="#radial-gradient-35"/><radialGradient id="radial-gradient-39" cx="7259.72" cy="7533.38" r="19.22" xlink:href="#radial-gradient-35"/><radialGradient id="radial-gradient-40" cx="7151.37" cy="7562.36" r="37.44" xlink:href="#radial-gradient-35"/><radialGradient id="radial-gradient-41" cx="890.66" cy="2355.06" r="23.65" gradientTransform="matrix(-0.93, -0.51, -0.49, 0.87, 2266.56, -1297.68)" xlink:href="#radial-gradient-35"/><radialGradient id="radial-gradient-42" cx="869.54" cy="2373.67" r="20.92" gradientTransform="matrix(-0.93, -0.51, -0.49, 0.87, 2266.56, -1297.68)" xlink:href="#radial-gradient-35"/><radialGradient id="radial-gradient-43" cx="6735.01" cy="8113.04" r="16.77" xlink:href="#radial-gradient-35"/><radialGradient id="radial-gradient-44" cx="6892.23" cy="8004.01" r="32.27" xlink:href="#radial-gradient-35"/><radialGradient id="radial-gradient-45" cx="6931.32" cy="8059.93" r="22.88" xlink:href="#radial-gradient-35"/><radialGradient id="radial-gradient-46" cx="7179.46" cy="8237.1" r="17.96" xlink:href="#radial-gradient-35"/><radialGradient id="radial-gradient-47" cx="7218.28" cy="8143.94" r="33.41" xlink:href="#radial-gradient-35"/><radialGradient id="radial-gradient-48" cx="7195.39" cy="8095.66" r="47.91" xlink:href="#radial-gradient-35"/><radialGradient id="radial-gradient-49" cx="7197.14" cy="8031.14" r="71.26" xlink:href="#radial-gradient-35"/><radialGradient id="radial-gradient-50" cx="7200.49" cy="8002.68" r="23.89" xlink:href="#radial-gradient-35"/><radialGradient id="radial-gradient-51" cx="929.65" cy="2412.17" r="29.28" gradientTransform="matrix(-0.93, -0.51, -0.49, 0.87, 2266.56, -1297.68)" xlink:href="#radial-gradient-35"/><radialGradient id="radial-gradient-52" cx="1149.98" cy="478.09" r="101.31" xlink:href="#radial-gradient"/><radialGradient id="radial-gradient-53" cx="1079.77" cy="310.51" r="26.38" xlink:href="#radial-gradient"/><radialGradient id="radial-gradient-54" cx="961.79" cy="479.72" r="24.11" xlink:href="#radial-gradient"/><radialGradient id="radial-gradient-55" cx="994.35" cy="431.61" r="24.11" xlink:href="#radial-gradient"/><radialGradient id="radial-gradient-56" cx="935.89" cy="313.33" r="34.45" xlink:href="#radial-gradient"/></defs><g id="Layer_2" data-name="Layer 2"><g id="Layer_1-2" data-name="Layer 1"><g class="cls-1"><path class="cls-2" d="M408,303.89C395.52,326.25,404.8,355,428.73,368s53.43,5.52,65.9-16.84,3.19-51.07-20.73-64.12S420.47,281.54,408,303.89Z"/><path class="cls-3" d="M87.64,40.55c-11,19.77-2.82,45.16,18.34,56.7s47.23,4.88,58.26-14.89,2.83-45.14-18.32-56.69S98.67,20.79,87.64,40.55Z"/><path class="cls-4" d="M467.82,267.21c-8.09,14.48-2.07,33.09,13.43,41.55s34.63,3.58,42.71-10.91,2.08-33.1-13.43-41.56S475.9,252.72,467.82,267.21Z"/><path class="cls-5" d="M403,175.44c-10.41,18.67-2.66,42.63,17.31,53.53s44.61,4.61,55-14.05S478,172.29,458,161.39,413.43,156.78,403,175.44Z"/><path class="cls-6" d="M461.22,246.72c-9.19,16.45-2.36,37.57,15.25,47.19S515.8,298,525,281.52s2.35-37.59-15.26-47.2S470.4,230.26,461.22,246.72Z"/><path class="cls-7" d="M582.4,62.09c-6.88,12.34-1.76,28.19,11.44,35.4s29.51,3,36.4-9.3S632,60,618.79,52.78,589.29,49.74,582.4,62.09Z"/><path class="cls-8" d="M646.33,255.45C633.46,278.5,643,308.1,667.7,321.56s55.09,5.69,68-17.37,3.29-52.64-21.38-66.1S659.19,232.4,646.33,255.45Z"/><path class="cls-9" d="M674.57,72.76c-28.31,50.73-7.25,115.87,47,145.49s121.23,12.52,149.54-38.2,7.25-115.88-47-145.51S702.88,22,674.57,72.76Z"/><path class="cls-10" d="M790.09,105.32c-6,10.69-1.53,24.41,9.91,30.66s25.54,2.64,31.51-8.06,1.52-24.41-9.91-30.65S796.05,94.63,790.09,105.32Z"/><path class="cls-11" d="M718.77,273.78c-10,17.9-2.55,40.89,16.6,51.33s42.78,4.43,52.77-13.47,2.56-40.9-16.6-51.35S728.77,255.88,718.77,273.78Z"/><path class="cls-12" d="M753.53,263c-13,23.23-3.32,53.05,21.53,66.61s55.51,5.74,68.46-17.49S846.85,259,822,245.45,766.49,239.73,753.53,263Z"/><path class="cls-13" d="M870.91,187.49c-11.61,20.82-3,47.55,19.31,59.71s49.77,5.15,61.38-15.67,3-47.57-19.3-59.72S882.53,166.67,870.91,187.49Z"/><path class="cls-14" d="M917.35,393.56c-5.28,9.48-1.35,21.64,8.79,27.17s22.63,2.34,27.91-7.14,1.36-21.63-8.77-27.16S922.64,384.09,917.35,393.56Z"/><path class="cls-15" d="M829.22,458.58c-7.34,13.16-1.89,30.05,12.19,37.73s31.43,3.24,38.77-9.91,1.88-30-12.19-37.72S836.56,445.43,829.22,458.58Z"/><path class="cls-16" d="M844.47,491.35c-6.49,11.63-1.66,26.57,10.79,33.36s27.8,2.87,34.29-8.75,1.66-26.58-10.79-33.37S851,479.72,844.47,491.35Z"/><path class="cls-17" d="M831.39,604.75c-19.2,34.4-4.92,78.57,31.89,98.66s82.22,8.49,101.41-25.91,4.92-78.58-31.9-98.67S850.59,570.35,831.39,604.75Z"/><path class="cls-18" d="M767,584.74c-10.85,19.44-2.78,44.4,18,55.75s46.45,4.8,57.3-14.64,2.78-44.4-18-55.75S777.87,565.3,767,584.74Z"/><path class="cls-19" d="M754.81,620c-12.48,22.38-3.21,51.12,20.75,64.2s53.49,5.52,66-16.87,3.19-51.12-20.75-64.19S767.3,597.61,754.81,620Z"/><path class="cls-20" d="M881.72,820.78c-4.61,8.26-1.18,18.87,7.67,23.71s19.76,2,24.38-6.23,1.17-18.89-7.67-23.72S886.34,812.5,881.72,820.78Z"/><path class="cls-21" d="M817.56,842.07c-5.64,10.12-1.44,23.1,9.39,29s24.18,2.5,29.82-7.61,1.45-23.11-9.38-29S823.22,832,817.56,842.07Z"/><path class="cls-22" d="M670,964.45c-9.27,16.62-2.37,38,15.41,47.67s39.72,4.09,49-12.52,2.37-38-15.41-47.68S679.22,947.83,670,964.45Z"/><path class="cls-23" d="M640.65,859c-4.29,7.69-1.11,17.57,7.12,22.06s18.38,1.89,22.67-5.8,1.1-17.55-7.13-22S644.94,851.27,640.65,859Z"/><path class="cls-24" d="M601.38,811.73c-5.21,9.33-1.34,21.3,8.65,26.75s22.29,2.31,27.5-7,1.32-21.31-8.66-26.76S606.58,802.39,601.38,811.73Z"/><path class="cls-25" d="M434.88,919.6c-12.85,23-3.29,52.61,21.36,66.06s55,5.68,67.89-17.35,3.29-52.61-21.35-66.06S447.73,896.57,434.88,919.6Z"/><path class="cls-26" d="M404,810.66c-8.58,15.38-2.2,35.13,14.27,44.11s36.76,3.81,45.35-11.58,2.19-35.13-14.27-44.12S412.59,795.27,404,810.66Z"/><path class="cls-27" d="M413.1,639.23c-7.1,12.73-1.81,29.07,11.8,36.5s30.41,3.14,37.51-9.58,1.83-29.07-11.8-36.5S420.21,626.5,413.1,639.23Z"/><path class="cls-28" d="M144.44,684.85c-20.77,37.23-5.31,85,34.52,106.78s89,9.19,109.75-28,5.32-85-34.53-106.78S165.2,647.62,144.44,684.85Z"/><path class="cls-29" d="M142.41,631.35c-5.57,10-1.43,22.82,9.25,28.65s23.87,2.47,29.45-7.53,1.42-22.8-9.27-28.64S148,621.37,142.41,631.35Z"/><path class="cls-30" d="M136.26,505.64c-10.36,18.58-2.65,42.45,17.24,53.3s44.4,4.58,54.77-14,2.65-42.45-17.22-53.29S146.64,487.06,136.26,505.64Z"/><path class="cls-31" d="M172.43,462c-14.87,26.65-3.81,60.86,24.71,76.43s63.68,6.57,78.55-20.08,3.8-60.86-24.71-76.42S187.3,435.31,172.43,462Z"/><path class="cls-32" d="M181.64,382.23c-22.11,39.62-5.66,90.51,36.75,113.65s94.69,9.77,116.8-29.85,5.66-90.51-36.74-113.66S203.75,342.59,181.64,382.23Z"/><path class="cls-33" d="M245.06,379.45c-7.41,13.29-1.9,30.35,12.32,38.1s31.74,3.29,39.16-10,1.89-30.35-12.32-38.11S252.47,366.17,245.06,379.45Z"/><path class="cls-34" d="M318,302.64c-9.08,16.29-2.32,37.19,15.09,46.69s38.92,4,48-12.26,2.32-37.2-15.1-46.71S327.06,286.36,318,302.64Z"/><path class="cls-35" d="M277.46,242.46c-27.27,48.88-7,111.64,45.33,140.18s116.79,12.06,144.07-36.82,7-111.63-45.32-140.17S304.74,193.58,277.46,242.46Z"/></g><g class="cls-1"><path class="cls-36" d="M561.89,1c-19-4.79-38.47,7.81-43.37,28.13s6.55,40.67,25.59,45.46,38.47-7.8,43.37-28.12S580.94,5.81,561.89,1Z"/><path class="cls-37" d="M312.41,264c-8,14.25-2.17,32.59,13.07,41s34.1,3.66,42.13-10.59,2.17-32.6-13.07-41S320.43,249.72,312.41,264Z"/><path class="cls-38" d="M715.05,17.05c-11.89-3-24,4.87-27.08,17.56S692.06,60,704,63,728,58.13,731,45.44,726.94,20,715.05,17.05Z"/><path class="cls-39" d="M567.45,114.16c-22.22-5.59-44.86,9.1-50.58,32.8s7.64,47.43,29.85,53,44.85-9.1,50.58-32.8S589.66,119.74,567.45,114.16Z"/><path class="cls-40" d="M725.6,200.79C715.3,198.2,704.81,205,702.15,216s3.54,22,13.84,24.58,20.81-4.22,23.46-15.2S735.91,203.38,725.6,200.79Z"/><path class="cls-41" d="M675,287c-20.05-5-40.51,8.23-45.68,29.63s6.9,42.85,27,47.9,40.52-8.22,45.69-29.63S695,292.06,675,287Z"/><path class="cls-42" d="M257.59,285.13c-6.41,11.38-1.73,26.06,10.45,32.77s27.26,2.92,33.67-8.46,1.74-26.06-10.45-32.77S264,273.75,257.59,285.13Z"/><path class="cls-43" d="M270.71,313.61c-5.67,10.07-1.53,23,9.24,29s24.12,2.59,29.79-7.47,1.53-23.05-9.24-29S276.38,303.54,270.71,313.61Z"/><path class="cls-44" d="M31.48,605.12c-9-2.26-18.15,3.68-20.46,13.27s3.08,19.2,12.08,21.46,18.15-3.68,20.46-13.27S40.48,607.38,31.48,605.12Z"/><path class="cls-45" d="M180.43,452.91c-17.29-4.34-34.92,7.09-39.38,25.54s5.95,36.93,23.24,41.28,34.93-7.09,39.39-25.54S197.72,457.26,180.43,452.91Z"/><path class="cls-46" d="M133.6,408.53c-12.26-3.08-24.76,5-27.92,18.11s4.22,26.18,16.47,29.27,24.77-5,27.93-18.11S145.87,411.62,133.6,408.53Z"/><path class="cls-47" d="M22.49,113.54c-9.63-2.42-19.44,3.94-21.92,14.2s3.31,20.56,12.94,23,19.43-3.94,21.91-14.22S32.11,116,22.49,113.54Z"/><path class="cls-48" d="M126.43,80.08c-17.9-4.5-36.16,7.34-40.77,26.44s6.16,38.24,24.06,42.74,36.16-7.34,40.77-26.43S144.34,84.59,126.43,80.08Z"/><path class="cls-49" d="M171.18,100.54c-25.67-6.46-51.85,10.51-58.47,37.92s8.84,54.83,34.52,61.28,51.84-10.52,58.45-37.91S196.85,107,171.18,100.54Z"/><path class="cls-50" d="M240.05,90.3c-38.17-9.6-77.11,15.65-86.94,56.38s13.14,81.54,51.31,91.14,77.11-15.64,87-56.38S278.24,99.9,240.05,90.3Z"/><path class="cls-51" d="M256.66,142.81c-12.81-3.22-25.85,5.24-29.15,18.9s4.4,27.34,17.2,30.56,25.86-5.25,29.15-18.91S269.46,146,256.66,142.81Z"/><path class="cls-52" d="M187.94,312c-7.94,14.1-2.15,32.26,12.92,40.57s33.75,3.62,41.7-10.47,2.14-32.27-12.94-40.58S195.88,297.89,187.94,312Z"/></g><g class="cls-1"><path class="cls-53" d="M356.61,455.54c-27.27,48.88-7,111.64,45.33,140.19s116.79,12,144.07-36.82,7-111.63-45.32-140.18S383.89,406.66,356.61,455.54Z"/></g><g class="cls-1"><path class="cls-54" d="M574,383.19c-7.1,12.72-1.81,29.06,11.81,36.49s30.41,3.15,37.5-9.58,1.83-29.06-11.79-36.5S581.07,370.45,574,383.19Z"/></g><g class="cls-1"><path class="cls-55" d="M603.89,592.34c-6.49,11.63-1.66,26.57,10.79,33.36s27.8,2.88,34.29-8.75,1.66-26.57-10.78-33.37S610.38,580.71,603.89,592.34Z"/></g><g class="cls-1"><path class="cls-56" d="M596.91,533.71c-6.49,11.63-1.66,26.57,10.79,33.36s27.8,2.87,34.29-8.76,1.66-26.57-10.79-33.37S603.4,522.08,596.91,533.71Z"/></g><g class="cls-1"><path class="cls-57" d="M699.54,454.92c-9.27,16.62-2.37,38,15.42,47.67s39.72,4.1,49-12.52,2.38-38-15.41-47.67S708.82,438.3,699.54,454.92Z"/></g></g></g></svg>