<svg xmlns="http://www.w3.org/2000/svg" viewBox="0 0 121.57 127.05"><defs><style>.cls-1{fill:#16ffff;}</style></defs><g id="Layer_2" data-name="Layer 2"><g id="Layer_2-2" data-name="Layer 2"><path class="cls-1" d="M121.46,77.26H22.19V16.7h99.27ZM55.21,61.61c-.68.94-1.23,1.76-1.83,2.54a3,3,0,0,0-.61,3.35c.66,1.3,1.81,1.55,3.16,1.54q20,0,40,0c2.6,0,3.47-.89,3.48-3.52v-26c0-2.72-.91-3.6-3.68-3.61-4.49,0-9,0-13.47,0a1.93,1.93,0,0,1-2-1.18A19.42,19.42,0,0,0,53.7,27.41C44.59,32.7,41.45,45.27,47,54.32A19.47,19.47,0,0,0,55.21,61.61Z"/><path class="cls-1" d="M.05,83h121.5v6.65c0,1.42,0,2.85,0,4.27A5.56,5.56,0,0,1,116,99.45c-.3,0-.6,0-.9,0H6.4c-1.64,0-3.31-.13-4.43-1.39a6.58,6.58,0,0,1-1.84-3.4C-.1,90.82.05,86.94.05,83ZM60.79,93.88a2.74,2.74,0,0,0,2.72-2.7,2.76,2.76,0,1,0-2.72,2.7Z"/><path class="cls-1" d="M.07,10.93a59.37,59.37,0,0,1,0-6.27A5.21,5.21,0,0,1,5.34,0c.34,0,.69,0,1,0Q60.76,0,115.13,0c1.75,0,3.46.16,4.63,1.54a6.51,6.51,0,0,1,1.61,3.12,52.16,52.16,0,0,1,.07,6.27ZM13.79,5.54a2.76,2.76,0,0,0-5.52,0,2.82,2.82,0,0,0,2.66,2.79A2.83,2.83,0,0,0,13.79,5.54Zm11,0a2.73,2.73,0,0,0-2.68-2.74A2.76,2.76,0,1,0,24.8,5.5Zm5.61.06a2.75,2.75,0,0,0,2.71,2.72,2.8,2.8,0,0,0,2.76-2.81,2.81,2.81,0,0,0-2.73-2.72A2.74,2.74,0,0,0,30.41,5.56Z"/><path class="cls-1" d="M0,16.65H16.45V77.21H0Zm8.29,27.5A2.72,2.72,0,0,0,11,41.43a2.77,2.77,0,0,0-2.81-2.75,2.72,2.72,0,0,0-2.67,2.74A2.67,2.67,0,0,0,8.33,44.15ZM5.54,52.54a2.73,2.73,0,0,0,2.72,2.69A2.78,2.78,0,0,0,11,52.42a2.72,2.72,0,0,0-2.88-2.66A2.65,2.65,0,0,0,5.54,52.54Zm0-22.17A2.75,2.75,0,0,0,8.2,33.14a2.76,2.76,0,1,0,0-5.52A2.75,2.75,0,0,0,5.54,30.37Zm0,33.12a2.75,2.75,0,0,0,2.75,2.8,2.76,2.76,0,0,0,0-5.52A2.74,2.74,0,0,0,5.54,63.49Z"/><path class="cls-1" d="M47,121.54V105H74.5v16.5c2.65,0,5.14,0,7.62,0a5.72,5.72,0,0,1,1.66.2,2.67,2.67,0,0,1,1.82,2.81A2.72,2.72,0,0,1,83.15,127c-.43,0-.86,0-1.29,0H39.65c-2.48,0-3.75-.94-3.75-2.74s1.32-2.77,3.74-2.77Z"/><path class="cls-1" d="M71.83,41.51h22v22a33.32,33.32,0,0,0-5.19,0c-3.28.51-5.24-.8-7-3.57C79,55.81,76,51.86,73.06,47.88A5.36,5.36,0,0,1,71.81,44,22.11,22.11,0,0,0,71.83,41.51Z"/><path class="cls-1" d="M74.31,35.88H70c-2.73,0-3.95,1-3.64,3.63a14.42,14.42,0,0,1-3.85,11.9A45.16,45.16,0,0,0,59,56.25a.93.93,0,0,1-1.36.43A13.82,13.82,0,1,1,74.19,35.43,3,3,0,0,1,74.31,35.88Z"/><path class="cls-1" d="M77.48,63.5H60.61L69,51.71Z"/></g></g></svg>